<svg id="svg" version="1.1" xmlns="http://www.w3.org/2000/svg" xmlns:xlink="http://www.w3.org/1999/xlink" width="400" height="400" viewBox="0, 0, 400,400"><g id="svgg"><path id="path0" d="M166.722 152.496 C 149.084 155.792,134.711 165.780,128.143 179.305 C 119.952 196.172,123.735 212.128,135.697 211.168 C 140.882 210.752,150.736 203.164,150.803 199.536 C 150.842 197.417,149.994 197.583,146.689 200.343 C 137.424 208.079,131.697 205.527,132.211 193.893 C 133.039 175.131,149.608 158.809,170.074 156.593 C 188.652 154.581,195.987 175.865,181.705 190.343 C 178.575 193.516,174.784 195.228,167.833 196.607 L 166.295 196.912 166.884 195.559 C 170.813 186.527,172.862 182.614,176.512 177.174 C 179.232 173.121,180.986 171.115,183.229 169.491 C 186.245 167.307,185.998 165.556,182.675 165.571 C 177.771 165.593,170.069 171.326,164.668 178.974 C 160.228 185.259,158.827 187.982,147.792 211.755 C 139.972 228.604,136.315 234.182,130.603 237.975 C 122.897 243.091,112.798 240.679,116.639 234.639 C 119.419 230.267,116.776 224.094,112.337 224.594 C 105.992 225.309,106.280 239.107,112.718 242.881 C 118.734 246.406,131.456 244.465,140.063 238.708 C 148.598 232.999,153.679 225.732,161.277 208.363 C 163.808 202.580,165.881 198.165,165.886 198.552 C 165.897 199.503,166.396 199.838,168.543 200.335 C 175.710 201.994,178.443 206.377,178.074 215.615 C 177.307 234.801,159.179 247.310,152.175 233.488 C 150.184 229.560,148.249 232.582,150.146 236.656 C 155.654 248.487,175.338 247.146,182.849 234.428 L 184.076 232.351 183.889 234.636 C 182.860 247.197,191.446 248.373,200.068 236.853 C 201.334 235.160,202.413 233.775,202.464 233.775 C 202.515 233.775,202.484 235.172,202.394 236.880 C 202.102 242.478,204.059 245.099,208.533 245.102 C 211.407 245.104,219.800 233.609,228.648 217.550 C 230.968 213.340,233.938 208.323,234.316 207.974 C 236.000 206.421,230.006 232.125,227.587 236.829 C 224.584 242.666,222.460 243.145,221.362 238.231 C 220.436 234.087,219.653 233.433,218.109 235.513 C 213.600 241.587,219.711 247.579,227.009 244.238 C 234.466 240.824,238.328 232.832,240.703 215.894 C 242.039 206.370,242.203 205.530,243.584 201.202 C 244.857 197.209,244.851 197.119,243.345 197.644 C 242.762 197.847,241.548 198.013,240.646 198.013 C 237.390 198.013,236.713 198.698,232.944 205.795 C 223.825 222.967,211.859 240.202,210.080 238.726 C 208.923 237.765,209.911 234.457,213.884 225.993 C 215.679 222.169,218.524 215.985,220.207 212.252 C 221.890 208.518,223.850 204.357,224.564 203.004 C 225.335 201.541,225.820 200.199,225.761 199.693 L 225.662 198.841 222.351 198.965 C 218.273 199.118,217.782 199.297,216.823 200.976 C 215.877 202.633,215.787 202.633,215.140 200.986 C 214.063 198.245,210.909 197.932,206.433 200.122 C 198.821 203.847,193.555 209.617,188.408 219.873 C 187.496 221.691,186.713 223.179,186.669 223.179 C 186.625 223.178,186.586 221.428,186.583 219.288 C 186.570 212.065,184.712 207.074,180.283 202.366 L 177.814 199.741 181.585 198.358 C 193.306 194.059,198.022 186.873,197.617 173.928 C 197.160 159.360,182.905 149.471,166.722 152.496 M264.052 175.124 C 262.692 175.954,260.995 178.670,260.636 180.592 C 259.727 185.455,263.768 188.233,266.887 184.890 C 271.208 180.257,268.866 172.189,264.052 175.124 M280.070 199.162 C 272.057 201.369,262.124 212.977,258.113 224.822 C 256.422 229.816,249.871 238.411,247.756 238.411 C 244.278 238.411,245.641 234.308,256.227 212.919 C 262.885 199.464,262.737 198.047,254.801 199.332 C 252.441 199.714,251.781 200.359,251.481 202.580 C 251.131 205.174,250.742 206.116,246.183 215.397 C 239.470 229.064,237.831 233.742,238.173 238.257 C 238.901 247.891,246.731 246.554,254.219 235.518 L 256.126 232.706 256.328 235.972 C 256.813 243.826,262.009 247.144,268.725 243.890 C 275.674 240.522,293.198 216.670,290.120 214.768 C 289.749 214.539,288.411 215.497,288.407 215.996 C 288.378 219.553,275.877 235.500,271.384 237.711 C 262.332 242.167,261.621 234.867,269.533 218.709 C 277.757 201.913,283.439 197.718,283.570 208.344 C 283.634 213.596,284.531 213.612,287.417 208.413 C 291.504 201.052,288.220 196.918,280.070 199.162 M211.581 202.309 C 215.677 206.405,198.884 238.742,192.661 238.742 C 187.942 238.742,191.243 227.526,200.583 211.830 C 205.412 203.714,209.471 200.200,211.581 202.309 " stroke="none" fill="#f9fafa" fill-rule="evenodd"></path><path id="path1" d="M0.000 200.000 L 0.000 400.000 200.000 400.000 L 400.000 400.000 400.000 200.000 L 400.000 0.000 200.000 0.000 L 0.000 0.000 0.000 200.000 M175.251 152.159 C 190.812 154.466,198.639 162.866,197.920 176.488 C 197.306 188.138,192.324 194.756,181.219 198.675 L 178.167 199.752 180.498 202.277 C 184.764 206.897,186.755 212.301,186.755 219.257 L 186.755 222.648 188.447 219.354 C 190.916 214.546,193.986 210.009,196.716 207.135 C 204.269 199.184,213.233 196.040,215.174 200.660 C 215.847 202.261,215.920 202.273,216.660 200.899 C 217.542 199.261,218.380 198.910,222.020 198.649 C 227.028 198.291,227.066 198.409,223.972 204.677 C 222.770 207.113,220.522 211.937,218.977 215.397 C 217.432 218.858,214.914 224.297,213.382 227.485 C 210.025 234.467,208.902 238.742,210.424 238.742 C 212.707 238.742,224.452 221.267,233.631 204.214 C 236.534 198.821,237.091 198.274,239.993 197.967 C 241.217 197.838,242.777 197.626,243.460 197.498 C 245.036 197.201,245.038 197.300,243.551 201.902 C 242.696 204.547,242.094 207.595,241.213 213.742 C 238.649 231.611,235.890 238.489,229.470 243.012 C 223.058 247.531,215.138 244.864,216.538 238.659 C 216.896 237.069,216.995 237.001,214.709 239.925 C 210.720 245.027,207.958 246.342,205.072 244.512 C 202.808 243.077,201.494 239.083,202.228 235.874 C 202.734 233.666,202.706 233.682,200.003 237.248 C 191.736 248.151,183.775 247.611,183.775 236.147 L 183.775 233.341 182.409 235.454 C 176.635 244.388,165.461 247.519,156.153 242.809 C 151.447 240.429,147.757 234.399,149.607 232.114 C 150.419 231.110,151.376 231.459,152.126 233.033 C 158.855 247.160,176.665 235.290,178.043 215.760 C 178.688 206.623,175.437 201.985,167.121 200.181 C 166.613 200.070,166.084 199.677,165.948 199.307 C 165.757 198.791,164.672 200.984,161.305 208.692 C 154.152 225.069,149.579 231.871,141.779 237.741 C 131.788 245.259,116.505 247.163,110.775 241.604 C 106.823 237.769,106.580 227.773,110.372 225.017 C 115.018 221.641,120.155 229.380,116.785 234.679 C 113.553 239.760,120.944 242.614,128.235 239.099 C 134.919 235.877,139.096 230.046,147.180 212.651 C 159.080 187.046,160.435 184.457,165.622 177.426 C 169.339 172.388,173.879 168.520,178.598 166.373 C 184.392 163.737,187.943 166.462,183.059 169.798 C 178.697 172.777,172.331 183.031,167.066 195.556 L 166.637 196.576 168.501 196.296 C 180.576 194.479,188.734 185.226,188.734 173.344 C 188.734 159.764,179.157 153.916,163.464 157.912 C 147.254 162.039,134.230 176.419,132.439 192.165 C 131.048 204.399,137.083 208.117,146.100 200.581 C 150.144 197.200,150.993 197.034,150.993 199.621 C 150.993 201.407,147.727 204.946,143.045 208.234 C 130.544 217.013,120.269 206.317,124.478 188.907 C 129.379 168.632,147.741 154.083,171.443 151.698 C 171.671 151.674,173.385 151.882,175.251 152.159 M267.960 175.157 C 270.214 176.930,269.551 182.796,266.807 185.356 C 265.067 186.979,262.502 186.846,261.234 185.065 C 258.070 180.621,263.931 171.988,267.960 175.157 M285.732 198.700 C 290.367 199.694,290.780 202.774,287.147 209.272 C 285.724 211.817,285.480 212.086,284.592 212.086 L 283.609 212.086 283.438 208.444 C 283.057 200.346,280.444 200.555,275.018 209.119 C 262.418 229.005,260.704 243.157,271.599 237.350 C 275.818 235.102,285.771 222.716,287.774 217.221 C 288.580 215.011,289.801 213.947,290.416 214.919 C 292.398 218.053,275.897 240.481,269.112 243.876 C 261.898 247.485,255.960 243.462,255.960 234.965 L 255.960 233.285 254.419 235.583 C 243.484 251.883,233.222 245.420,240.632 226.902 C 241.463 224.826,244.120 219.115,246.537 214.210 C 249.799 207.592,250.988 204.845,251.148 203.557 C 251.606 199.883,252.092 199.450,256.318 198.951 C 262.859 198.177,262.853 200.095,256.268 213.279 C 245.685 234.466,244.004 239.793,248.428 238.111 C 250.635 237.271,256.472 228.906,258.268 224.007 C 263.030 211.017,273.055 200.128,281.557 198.709 C 283.973 198.306,283.895 198.306,285.732 198.700 M208.244 202.646 C 202.224 205.828,188.765 232.530,190.938 236.980 C 193.111 241.427,198.990 235.194,206.300 220.695 C 213.502 206.411,214.250 199.473,208.244 202.646 M232.218 211.672 C 230.489 214.617,228.524 218.106,226.813 221.267 C 225.860 223.026,222.383 228.677,220.795 231.044 C 218.763 234.073,218.613 234.443,219.511 234.209 C 220.329 233.995,220.888 235.116,221.525 238.245 C 222.049 240.824,222.372 241.391,223.317 241.391 C 226.994 241.391,231.526 227.958,234.239 209.023 C 234.390 207.963,234.411 207.936,232.218 211.672 " stroke="none" fill="#0b6c74" fill-rule="evenodd"></path><path id="path2" d="M171.275 151.884 C 171.594 151.967,172.115 151.967,172.434 151.884 C 172.752 151.801,172.492 151.732,171.854 151.732 C 171.217 151.732,170.956 151.801,171.275 151.884 M188.836 173.344 C 188.839 174.255,188.903 174.588,188.979 174.085 C 189.055 173.582,189.053 172.836,188.975 172.429 C 188.896 172.022,188.834 172.434,188.836 173.344 M221.275 198.904 C 221.594 198.987,222.115 198.987,222.434 198.904 C 222.752 198.820,222.492 198.752,221.854 198.752 C 221.217 198.752,220.956 198.820,221.275 198.904 M134.189 211.487 C 134.507 211.570,135.029 211.570,135.348 211.487 C 135.666 211.403,135.406 211.335,134.768 211.335 C 134.131 211.335,133.870 211.403,134.189 211.487 M196.502 236.175 L 195.530 237.252 196.606 236.279 C 197.198 235.744,197.682 235.260,197.682 235.203 C 197.682 234.947,197.409 235.172,196.502 236.175 M212.402 237.169 L 211.093 238.576 212.500 237.267 C 213.809 236.050,214.059 235.762,213.809 235.762 C 213.755 235.762,213.122 236.395,212.402 237.169 " stroke="none" fill="#659598" fill-rule="evenodd"></path><path id="path3" d="M190.728 158.382 C 190.728 158.439,191.213 158.923,191.805 159.458 L 192.881 160.430 191.908 159.354 C 191.002 158.351,190.728 158.126,190.728 158.382 M137.417 166.722 C 136.613 167.541,136.029 168.212,136.120 168.212 C 136.211 168.212,136.944 167.541,137.748 166.722 C 138.553 165.902,139.136 165.232,139.045 165.232 C 138.954 165.232,138.222 165.902,137.417 166.722 M144.524 168.295 L 142.881 170.033 144.619 168.390 C 145.575 167.486,146.358 166.704,146.358 166.652 C 146.358 166.404,146.051 166.679,144.524 168.295 M197.796 175.000 C 197.797 176.457,197.855 177.012,197.925 176.233 C 197.995 175.454,197.994 174.262,197.923 173.584 C 197.852 172.906,197.794 173.543,197.796 175.000 M123.609 196.689 C 123.609 197.690,123.671 198.100,123.747 197.599 C 123.823 197.099,123.823 196.279,123.747 195.778 C 123.671 195.277,123.609 195.687,123.609 196.689 M179.470 201.490 C 180.088 202.127,180.668 202.649,180.759 202.649 C 180.850 202.649,180.419 202.127,179.801 201.490 C 179.184 200.853,178.604 200.331,178.512 200.331 C 178.421 200.331,178.852 200.853,179.470 201.490 M283.527 207.781 C 283.531 208.510,283.599 208.769,283.678 208.357 C 283.757 207.945,283.754 207.349,283.671 207.033 C 283.588 206.716,283.524 207.053,283.527 207.781 M145.684 234.023 L 143.874 235.927 145.778 234.117 C 147.547 232.436,147.834 232.119,147.588 232.119 C 147.536 232.119,146.679 232.976,145.684 234.023 M263.991 233.940 C 263.994 234.669,264.062 234.928,264.141 234.516 C 264.221 234.104,264.218 233.508,264.135 233.192 C 264.052 232.875,263.987 233.212,263.991 233.940 M256.050 235.099 C 256.050 235.919,256.115 236.254,256.194 235.844 C 256.273 235.435,256.273 234.764,256.194 234.354 C 256.115 233.945,256.050 234.280,256.050 235.099 M202.064 237.748 C 202.064 238.386,202.132 238.647,202.215 238.328 C 202.298 238.009,202.298 237.488,202.215 237.169 C 202.132 236.850,202.064 237.111,202.064 237.748 M273.660 240.149 L 272.351 241.556 273.758 240.247 C 275.067 239.030,275.318 238.742,275.067 238.742 C 275.013 238.742,274.380 239.375,273.660 240.149 M249.814 240.811 L 248.841 241.887 249.917 240.915 C 250.509 240.380,250.993 239.896,250.993 239.839 C 250.993 239.583,250.720 239.808,249.814 240.811 " stroke="none" fill="#8dacb0" fill-rule="evenodd"></path><path id="path4" d="" stroke="none" fill="#82acaa" fill-rule="evenodd"></path></g></svg>