<svg id="svg" version="1.1" xmlns="http://www.w3.org/2000/svg" xmlns:xlink="http://www.w3.org/1999/xlink" width="400" height="400" viewBox="0, 0, 400,400"><g id="svgg"><path id="path0" d="M80.113 152.482 C 61.941 156.105,44.992 171.753,40.498 189.055 C 35.758 207.306,46.706 216.496,60.021 205.444 C 62.235 203.606,64.238 201.006,64.238 199.970 C 64.238 198.017,63.312 197.898,60.878 199.538 C 48.825 207.661,43.535 195.669,51.850 179.074 C 59.225 164.357,70.393 156.306,83.609 156.180 C 98.709 156.035,104.625 171.075,96.222 188.245 C 92.034 196.802,87.305 199.574,81.015 197.161 C 79.572 196.607,78.988 199.402,80.242 200.860 C 82.229 203.171,91.382 201.707,96.589 198.245 C 104.326 193.102,109.083 183.016,108.490 173.013 C 107.608 158.116,95.563 149.402,80.113 152.482 M90.790 164.441 C 84.573 167.639,79.481 173.187,74.108 182.616 C 71.189 187.740,65.297 199.879,63.765 203.928 C 60.654 212.146,60.132 213.196,53.858 223.841 C 46.752 235.897,40.602 241.219,33.775 241.217 C 27.952 241.216,25.767 238.135,28.496 233.775 C 31.556 228.885,28.114 221.968,23.737 224.212 C 18.460 226.917,18.150 236.693,23.179 241.723 C 27.408 245.951,37.290 245.869,45.859 241.534 C 59.927 234.419,67.901 223.682,77.031 199.564 C 78.191 196.501,79.864 192.329,80.750 190.292 C 81.636 188.256,82.849 185.323,83.444 183.775 C 87.638 172.876,91.755 166.556,94.662 166.556 C 96.179 166.556,96.992 164.270,95.717 163.588 C 94.575 162.976,93.161 163.221,90.790 164.441 M374.669 166.225 C 374.123 166.364,372.996 166.496,372.166 166.517 C 370.044 166.572,369.603 167.032,368.872 169.958 C 368.001 173.443,366.588 176.889,364.084 181.630 C 362.928 183.820,360.194 189.493,358.009 194.236 C 355.824 198.979,352.469 205.992,350.554 209.820 C 348.638 213.647,346.326 218.430,345.416 220.448 C 342.293 227.370,333.650 239.073,331.662 239.073 C 329.552 239.073,330.450 235.076,334.410 226.847 C 336.038 223.464,338.663 217.793,340.243 214.245 C 341.824 210.697,343.921 206.192,344.903 204.234 C 347.249 199.556,347.230 197.777,344.843 198.685 C 344.378 198.862,342.996 199.007,341.774 199.007 C 339.222 199.007,338.383 199.439,337.466 201.227 L 336.857 202.413 336.056 200.960 C 334.462 198.071,331.641 197.808,327.019 200.115 C 319.247 203.996,314.374 209.609,308.234 221.753 C 303.043 232.018,298.604 238.151,295.148 239.830 C 290.346 242.163,291.920 236.886,300.758 221.026 C 302.584 217.748,304.486 214.080,304.983 212.875 C 310.306 199.969,301.912 194.585,291.805 204.423 C 290.666 205.531,289.735 206.349,289.735 206.241 C 289.735 206.132,289.959 205.410,290.232 204.636 C 291.725 200.403,290.687 198.769,286.833 199.288 C 285.400 199.481,283.914 199.557,283.532 199.457 C 282.564 199.204,281.904 200.336,281.481 202.978 C 281.208 204.684,280.098 207.250,276.110 215.395 C 273.345 221.042,269.843 228.327,268.329 231.583 C 266.814 234.839,264.902 238.652,264.079 240.056 C 261.561 244.350,261.925 245.033,266.730 245.033 C 271.206 245.033,270.758 245.624,279.338 228.385 C 286.719 213.556,293.279 204.636,296.804 204.636 C 298.699 204.636,298.397 207.504,296.076 211.556 C 292.683 217.481,285.833 231.409,284.906 234.272 C 280.122 249.037,293.122 250.150,302.821 235.806 L 304.470 233.366 304.674 236.672 C 305.364 247.867,312.914 247.818,321.250 236.564 C 323.592 233.400,323.680 233.370,323.216 235.877 C 322.355 240.537,324.474 244.883,327.593 244.855 C 330.608 244.828,333.501 242.411,337.884 236.258 C 340.707 232.294,341.201 231.675,340.917 232.450 C 339.859 235.348,340.181 240.730,341.529 242.675 C 344.219 246.558,347.905 245.622,353.871 239.539 C 360.545 232.734,369.279 217.333,367.194 216.044 C 366.491 215.610,365.242 217.369,362.447 222.730 C 359.434 228.507,357.870 231.013,355.197 234.343 C 349.955 240.875,346.505 238.404,350.308 230.841 C 351.056 229.354,353.537 224.079,355.823 219.118 C 358.108 214.158,361.472 207.194,363.297 203.642 C 366.234 197.930,371.713 186.571,377.032 175.166 C 380.319 168.120,379.493 164.998,374.669 166.225 M185.896 166.898 C 179.365 168.192,170.751 177.175,162.091 191.722 C 160.844 193.816,159.231 196.387,158.507 197.434 L 157.189 199.338 154.775 199.338 C 151.719 199.338,150.841 199.673,150.372 201.019 C 149.831 202.572,150.321 202.980,152.725 202.980 L 154.708 202.980 154.489 203.891 C 154.368 204.392,153.252 207.036,152.008 209.768 C 150.764 212.500,148.960 216.598,147.998 218.874 C 143.990 228.362,129.316 256.953,125.615 262.487 C 119.756 271.247,110.633 273.176,112.210 265.320 C 113.204 260.370,111.167 257.857,107.913 260.019 C 102.491 263.623,106.771 273.563,113.719 273.504 C 128.323 273.382,144.115 252.863,159.324 214.251 C 161.298 209.239,163.999 203.658,164.527 203.500 C 164.824 203.411,166.460 203.118,168.163 202.849 C 172.263 202.200,173.398 201.212,171.837 199.651 C 171.275 199.089,170.907 199.009,169.717 199.187 C 166.030 199.740,166.007 199.888,171.328 189.029 C 177.094 177.264,180.933 171.854,183.517 171.854 C 185.263 171.854,185.582 172.467,185.493 175.651 C 185.374 179.932,186.925 180.169,189.700 176.295 C 194.151 170.079,192.346 165.619,185.896 166.898 M246.324 175.259 C 243.909 176.882,242.228 181.131,243.035 183.574 C 244.779 188.858,250.994 186.128,251.565 179.826 C 251.970 175.363,249.444 173.163,246.324 175.259 M202.815 197.682 C 202.450 197.839,201.333 197.978,200.331 197.991 C 196.980 198.036,197.111 197.875,190.401 210.221 C 189.078 212.656,187.627 214.965,187.177 215.354 C 186.727 215.742,185.694 217.401,184.882 219.040 C 183.028 222.781,175.495 234.040,173.516 236.028 C 167.646 241.924,161.949 238.504,164.071 230.357 C 165.165 226.160,166.455 224.687,171.102 222.329 C 183.693 215.939,189.057 207.836,185.564 200.477 C 183.363 195.839,172.285 200.393,165.790 208.606 C 156.436 220.436,152.450 237.532,157.811 242.831 C 159.738 244.736,164.561 245.896,166.239 244.859 C 166.436 244.737,167.029 244.817,167.557 245.036 C 169.123 245.685,172.353 243.069,175.636 238.493 C 177.029 236.552,177.287 236.357,176.813 237.604 C 174.524 243.626,182.006 247.631,188.203 243.702 L 189.735 242.730 189.735 243.859 C 189.735 246.985,194.019 244.254,198.152 238.493 C 199.546 236.552,199.804 236.357,199.330 237.604 C 196.941 243.887,204.604 247.655,211.153 243.418 C 218.002 238.988,220.850 232.268,223.478 214.337 C 224.491 207.425,225.083 204.440,226.025 201.501 C 227.389 197.247,227.368 197.082,225.543 197.629 C 224.838 197.840,223.533 198.014,222.644 198.014 C 220.106 198.016,219.201 198.784,216.992 202.810 C 210.232 215.124,207.988 218.904,203.109 226.193 C 200.110 230.674,196.908 235.144,195.995 236.127 L 194.334 237.914 195.479 235.762 C 198.105 230.824,199.139 226.775,200.977 214.225 C 201.911 207.852,202.602 204.249,203.273 202.266 C 204.977 197.225,204.931 196.772,202.815 197.682 M100.588 198.924 C 99.850 199.765,99.241 201.055,97.239 206.007 C 91.246 220.836,82.728 234.958,77.075 239.437 C 74.039 241.843,73.462 242.779,74.123 244.230 C 75.945 248.229,85.240 236.217,93.920 218.645 C 99.118 208.121,99.104 208.139,101.305 209.262 C 102.152 209.694,102.947 209.872,103.457 209.743 C 105.425 209.250,105.182 210.426,102.803 212.914 C 92.720 223.456,87.550 240.105,93.104 244.149 C 97.196 247.129,103.117 243.135,108.917 233.484 L 110.584 230.709 110.379 233.823 C 109.195 251.854,131.152 246.385,140.406 226.344 C 144.500 217.479,145.974 207.616,143.870 203.168 C 139.282 193.468,123.015 202.349,114.400 219.257 C 107.934 231.947,103.953 237.417,101.184 237.417 C 97.058 237.417,103.235 220.933,112.831 206.337 C 115.461 202.338,116.085 200.514,115.104 199.700 C 114.525 199.219,114.087 199.273,110.099 200.317 C 106.905 201.152,105.774 201.014,103.261 199.484 C 101.075 198.152,101.235 198.186,100.588 198.924 M240.066 198.856 C 239.793 198.916,238.708 199.061,237.655 199.177 C 234.895 199.481,234.160 200.227,233.750 203.139 C 233.473 205.106,232.694 206.949,228.499 215.556 C 221.661 229.584,220.264 233.616,220.601 238.338 C 221.296 248.038,229.198 246.626,236.815 235.441 C 237.749 234.069,238.602 232.842,238.710 232.714 C 238.819 232.585,238.858 233.512,238.798 234.772 C 238.365 243.824,245.774 247.567,254.361 242.635 C 270.852 233.163,280.388 202.145,267.683 199.302 C 259.407 197.449,244.226 211.692,240.535 224.772 C 239.439 228.653,232.738 237.745,230.572 238.289 C 226.513 239.308,228.443 233.477,239.408 211.589 C 244.581 201.263,244.759 197.818,240.066 198.856 M332.114 201.984 C 335.452 203.770,328.809 220.966,320.088 233.113 C 312.930 243.083,308.628 239.248,313.591 227.321 C 320.093 211.699,328.579 200.092,332.114 201.984 M179.828 202.699 C 181.425 205.683,175.289 216.058,169.870 219.535 C 166.954 221.406,167.109 219.638,170.374 213.787 C 175.350 204.870,178.815 200.806,179.828 202.699 M137.463 203.283 C 138.593 204.198,138.580 209.281,137.439 212.914 C 131.878 230.622,123.275 242.776,118.217 240.069 C 113.588 237.591,125.511 210.604,134.332 203.594 C 135.728 202.485,136.397 202.418,137.463 203.283 M265.940 203.283 C 267.070 204.198,267.057 209.281,265.916 212.914 C 260.355 230.622,251.752 242.776,246.693 240.069 C 242.064 237.591,253.988 210.604,262.809 203.594 C 264.205 202.485,264.874 202.418,265.940 203.283 M194.037 210.816 C 191.407 228.421,186.879 241.391,183.362 241.391 C 182.223 241.391,181.959 240.956,181.314 238.009 C 181.007 236.604,180.500 235.140,180.189 234.756 L 179.623 234.056 178.685 234.794 C 177.934 235.385,178.192 234.815,179.987 231.921 C 181.218 229.936,183.934 225.406,186.022 221.854 C 188.111 218.303,190.494 214.280,191.317 212.914 C 192.141 211.548,193.101 209.857,193.450 209.157 C 194.337 207.380,194.487 207.804,194.037 210.816 M216.552 210.816 C 213.908 228.428,209.425 241.391,205.979 241.391 C 204.733 241.391,204.486 241.002,203.831 238.009 C 203.523 236.604,203.017 235.140,202.705 234.756 L 202.139 234.056 201.202 234.794 C 200.449 235.386,200.703 234.822,202.497 231.921 C 203.725 229.936,206.442 225.406,208.535 221.854 C 210.628 218.303,213.011 214.280,213.830 212.914 C 214.650 211.548,215.625 209.874,215.998 209.193 C 216.916 207.514,217.007 207.781,216.552 210.816 " stroke="none" fill="#f8f9f9" fill-rule="evenodd"></path><path id="path1" d="M0.000 200.000 L 0.000 400.000 200.000 400.000 L 400.000 400.000 400.000 200.000 L 400.000 0.000 200.000 0.000 L 0.000 0.000 0.000 200.000 M92.579 152.651 C 116.295 158.665,112.684 197.091,87.989 201.491 C 82.260 202.512,79.470 201.700,79.470 199.012 C 79.470 197.922,80.326 196.896,81.015 197.161 C 87.305 199.574,92.034 196.802,96.222 188.245 C 103.064 174.263,100.030 159.891,89.570 156.740 C 78.140 153.297,63.370 160.558,54.785 173.841 C 43.050 191.998,47.048 208.858,60.878 199.538 C 64.144 197.337,65.431 198.748,63.213 202.097 C 56.154 212.754,41.824 212.528,39.719 201.726 C 34.990 177.464,68.339 146.504,92.579 152.651 M95.717 163.588 C 96.992 164.270,96.179 166.556,94.662 166.556 C 91.755 166.556,87.638 172.876,83.444 183.775 C 82.849 185.323,81.636 188.256,80.750 190.292 C 79.864 192.329,78.191 196.501,77.031 199.564 C 67.901 223.682,59.927 234.419,45.859 241.534 C 37.290 245.869,27.408 245.951,23.179 241.723 C 18.150 236.693,18.460 226.917,23.737 224.212 C 28.114 221.968,31.556 228.885,28.496 233.775 C 25.767 238.135,27.952 241.216,33.775 241.217 C 40.602 241.219,46.752 235.897,53.858 223.841 C 60.132 213.196,60.654 212.146,63.765 203.928 C 66.263 197.327,73.388 183.372,77.352 177.318 C 83.017 168.665,92.273 161.745,95.717 163.588 M378.167 166.237 C 379.560 166.982,379.077 170.781,377.032 175.166 C 371.713 186.571,366.234 197.930,363.297 203.642 C 361.472 207.194,358.108 214.158,355.823 219.118 C 353.537 224.079,351.056 229.354,350.308 230.841 C 346.505 238.404,349.955 240.875,355.197 234.343 C 357.870 231.013,359.434 228.507,362.447 222.730 C 365.242 217.369,366.491 215.610,367.194 216.044 C 369.279 217.333,360.545 232.734,353.871 239.539 C 347.905 245.622,344.219 246.558,341.529 242.675 C 340.181 240.730,339.859 235.348,340.917 232.450 C 341.201 231.675,340.707 232.294,337.884 236.258 C 333.501 242.411,330.608 244.828,327.593 244.855 C 324.474 244.883,322.355 240.537,323.216 235.877 C 323.680 233.370,323.592 233.400,321.250 236.564 C 312.914 247.818,305.364 247.867,304.674 236.672 L 304.470 233.366 302.821 235.806 C 293.122 250.150,280.122 249.037,284.906 234.272 C 285.833 231.409,292.683 217.481,296.076 211.556 C 298.397 207.504,298.699 204.636,296.804 204.636 C 293.279 204.636,286.719 213.556,279.338 228.385 C 270.758 245.624,271.206 245.033,266.730 245.033 C 261.925 245.033,261.561 244.350,264.079 240.056 C 264.902 238.652,266.814 234.839,268.329 231.583 C 269.843 228.327,273.345 221.042,276.110 215.395 C 280.098 207.250,281.208 204.684,281.481 202.978 C 281.904 200.336,282.564 199.204,283.532 199.457 C 283.914 199.557,285.400 199.481,286.833 199.288 C 290.687 198.769,291.725 200.403,290.232 204.636 C 289.959 205.410,289.735 206.132,289.735 206.241 C 289.735 206.349,290.666 205.531,291.805 204.423 C 301.912 194.585,310.306 199.969,304.983 212.875 C 304.486 214.080,302.584 217.748,300.758 221.026 C 291.920 236.886,290.346 242.163,295.148 239.830 C 298.604 238.151,303.043 232.018,308.234 221.753 C 314.374 209.609,319.247 203.996,327.019 200.115 C 331.641 197.808,334.462 198.071,336.056 200.960 L 336.857 202.413 337.466 201.227 C 338.383 199.439,339.222 199.007,341.774 199.007 C 342.996 199.007,344.378 198.862,344.843 198.685 C 347.230 197.777,347.249 199.556,344.903 204.234 C 343.921 206.192,341.824 210.697,340.243 214.245 C 338.663 217.793,336.038 223.464,334.410 226.847 C 330.450 235.076,329.552 239.073,331.662 239.073 C 333.650 239.073,342.293 227.370,345.416 220.448 C 346.326 218.430,348.638 213.647,350.554 209.820 C 352.469 205.992,355.824 198.979,358.009 194.236 C 360.194 189.493,362.928 183.820,364.084 181.630 C 366.588 176.889,368.001 173.443,368.872 169.958 C 369.603 167.032,370.044 166.572,372.166 166.517 C 372.996 166.496,374.123 166.364,374.669 166.225 C 376.151 165.848,377.449 165.852,378.167 166.237 M190.908 167.312 C 192.763 168.908,192.248 172.736,189.700 176.295 C 186.925 180.169,185.374 179.932,185.493 175.651 C 185.582 172.467,185.263 171.854,183.517 171.854 C 180.933 171.854,177.094 177.264,171.328 189.029 C 166.007 199.888,166.030 199.740,169.717 199.187 C 170.907 199.009,171.275 199.089,171.837 199.651 C 173.398 201.212,172.263 202.200,168.163 202.849 C 166.460 203.118,164.824 203.411,164.527 203.500 C 163.999 203.658,161.298 209.239,159.324 214.251 C 154.258 227.113,145.388 245.241,140.133 253.476 C 128.765 271.288,110.919 279.226,106.313 268.520 C 104.749 264.883,105.343 261.727,107.913 260.019 C 111.167 257.857,113.204 260.370,112.210 265.320 C 110.633 273.176,119.756 271.247,125.615 262.487 C 129.316 256.953,143.990 228.362,147.998 218.874 C 148.960 216.598,150.764 212.500,152.008 209.768 C 153.252 207.036,154.368 204.392,154.489 203.891 L 154.708 202.980 152.725 202.980 C 150.321 202.980,149.831 202.572,150.372 201.019 C 150.841 199.673,151.719 199.338,154.775 199.338 L 157.189 199.338 158.507 197.434 C 159.231 196.387,160.844 193.816,162.091 191.722 C 168.638 180.724,173.659 174.607,180.132 169.739 C 184.168 166.705,188.950 165.628,190.908 167.312 M250.232 175.001 C 252.734 176.754,251.589 183.859,248.496 185.770 C 246.355 187.093,243.866 186.092,243.035 183.574 C 241.562 179.112,246.946 172.699,250.232 175.001 M204.460 198.389 C 204.335 198.960,203.801 200.705,203.273 202.266 C 202.602 204.249,201.911 207.852,200.977 214.225 C 199.139 226.775,198.105 230.824,195.479 235.762 L 194.334 237.914 195.995 236.127 C 196.908 235.144,200.110 230.674,203.109 226.193 C 207.988 218.904,210.232 215.124,216.992 202.810 C 219.201 198.784,220.106 198.016,222.644 198.014 C 223.533 198.014,224.838 197.840,225.543 197.629 C 227.368 197.082,227.389 197.247,226.025 201.501 C 225.083 204.440,224.491 207.425,223.478 214.337 C 220.850 232.268,218.002 238.988,211.153 243.418 C 204.604 247.655,196.941 243.887,199.330 237.604 C 199.804 236.357,199.546 236.552,198.152 238.493 C 194.019 244.254,189.735 246.985,189.735 243.859 L 189.735 242.730 188.203 243.702 C 182.006 247.631,174.524 243.626,176.813 237.604 C 177.287 236.357,177.029 236.552,175.636 238.493 C 172.353 243.069,169.123 245.685,167.557 245.036 C 167.029 244.817,166.436 244.737,166.239 244.859 C 164.561 245.896,159.738 244.736,157.811 242.831 C 152.450 237.532,156.436 220.436,165.790 208.606 C 172.285 200.393,183.363 195.839,185.564 200.477 C 189.057 207.836,183.693 215.939,171.102 222.329 C 166.455 224.687,165.165 226.160,164.071 230.357 C 161.949 238.504,167.646 241.924,173.516 236.028 C 175.495 234.040,183.028 222.781,184.882 219.040 C 185.694 217.401,186.727 215.742,187.177 215.354 C 187.627 214.965,189.078 212.656,190.401 210.221 C 197.111 197.875,196.980 198.036,200.331 197.991 C 201.333 197.978,202.450 197.839,202.815 197.682 C 204.243 197.068,204.707 197.267,204.460 198.389 M103.261 199.484 C 105.774 201.014,106.905 201.152,110.099 200.317 C 114.087 199.273,114.525 199.219,115.104 199.700 C 116.085 200.514,115.461 202.338,112.831 206.337 C 103.235 220.933,97.058 237.417,101.184 237.417 C 103.953 237.417,107.934 231.947,114.400 219.257 C 123.015 202.349,139.282 193.468,143.870 203.168 C 145.974 207.616,144.500 217.479,140.406 226.344 C 131.152 246.385,109.195 251.854,110.379 233.823 L 110.584 230.709 108.917 233.484 C 103.117 243.135,97.196 247.129,93.104 244.149 C 87.550 240.105,92.720 223.456,102.803 212.914 C 105.182 210.426,105.425 209.250,103.457 209.743 C 102.947 209.872,102.152 209.694,101.305 209.262 C 99.104 208.139,99.118 208.121,93.920 218.645 C 85.240 236.217,75.945 248.229,74.123 244.230 C 73.462 242.779,74.039 241.843,77.075 239.437 C 82.728 234.958,91.246 220.836,97.239 206.007 C 100.594 197.705,100.503 197.804,103.261 199.484 M243.003 199.449 C 244.305 200.501,243.356 203.709,239.408 211.589 C 228.443 233.477,226.513 239.308,230.572 238.289 C 232.738 237.745,239.439 228.653,240.535 224.772 C 244.864 209.433,263.340 194.498,270.517 200.537 C 277.641 206.531,270.556 230.269,258.900 239.458 C 247.877 248.149,238.266 245.908,238.798 234.772 C 238.858 233.512,238.819 232.585,238.710 232.714 C 238.602 232.842,237.749 234.069,236.815 235.441 C 229.198 246.626,221.296 248.038,220.601 238.338 C 220.264 233.616,221.661 229.584,228.499 215.556 C 232.694 206.949,233.473 205.106,233.750 203.139 C 234.160 200.227,234.895 199.481,237.655 199.177 C 238.708 199.061,239.793 198.916,240.066 198.856 C 240.806 198.692,242.486 199.032,243.003 199.449 M329.594 202.291 C 323.113 205.234,309.244 232.561,311.761 237.429 C 313.885 241.537,319.473 235.764,326.676 222.020 C 334.165 207.731,335.356 199.674,329.594 202.291 M177.649 203.025 C 174.437 205.845,166.701 219.635,167.911 220.383 C 168.941 221.019,173.856 216.463,176.613 212.316 C 180.792 206.029,181.505 199.639,177.649 203.025 M134.332 203.594 C 125.511 210.604,113.588 237.591,118.217 240.069 C 123.275 242.776,131.878 230.622,137.439 212.914 C 139.614 205.989,137.877 200.777,134.332 203.594 M262.809 203.594 C 253.988 210.604,242.064 237.591,246.693 240.069 C 251.752 242.776,260.355 230.622,265.916 212.914 C 268.091 205.989,266.353 200.777,262.809 203.594 M193.450 209.157 C 193.101 209.857,192.141 211.548,191.317 212.914 C 190.494 214.280,188.111 218.303,186.022 221.854 C 183.934 225.406,181.218 229.936,179.987 231.921 C 178.192 234.815,177.934 235.385,178.685 234.794 L 179.623 234.056 180.189 234.756 C 180.500 235.140,181.007 236.604,181.314 238.009 C 183.660 248.724,190.586 233.923,194.037 210.816 C 194.487 207.804,194.337 207.380,193.450 209.157 M215.998 209.193 C 215.625 209.874,214.650 211.548,213.830 212.914 C 213.011 214.280,210.628 218.303,208.535 221.854 C 206.442 225.406,203.725 229.936,202.497 231.921 C 200.703 234.822,200.449 235.386,201.202 234.794 L 202.139 234.056 202.705 234.756 C 203.017 235.140,203.523 236.604,203.831 238.009 C 206.189 248.780,213.056 234.100,216.552 210.816 C 217.007 207.781,216.916 207.514,215.998 209.193 " stroke="none" fill="#0b6c74" fill-rule="evenodd"></path></g></svg>