<svg id="svg" version="1.1" xmlns="http://www.w3.org/2000/svg" xmlns:xlink="http://www.w3.org/1999/xlink" width="400" height="400" viewBox="0, 0, 400,400"><g id="svgg"><path id="path0" d="M105.043 152.500 C 98.571 154.242,92.402 160.701,89.762 168.497 C 86.760 177.360,87.203 183.276,92.221 201.325 C 96.103 215.290,95.334 223.715,89.374 232.496 C 79.589 246.911,62.191 239.378,61.356 220.364 C 60.573 202.545,73.697 187.199,81.251 197.103 C 84.383 201.209,83.501 211.260,79.627 215.602 C 77.741 217.715,77.686 217.822,78.016 218.682 C 79.080 221.456,84.909 215.479,86.872 209.599 C 91.295 196.360,84.921 185.430,74.930 189.118 C 58.937 195.021,49.785 219.134,57.514 235.001 C 65.294 250.973,89.325 247.040,99.118 228.194 C 104.591 217.658,104.960 208.134,100.505 192.384 C 95.447 174.504,95.142 170.001,98.499 162.748 C 102.417 154.282,110.750 154.560,112.721 163.224 C 114.548 171.256,111.062 182.119,106.657 182.119 C 105.042 182.119,104.636 182.424,104.636 183.637 C 104.636 187.348,111.391 185.614,114.791 181.031 C 117.743 177.051,119.203 172.310,119.197 166.722 C 119.186 155.525,113.823 150.136,105.043 152.500 M245.530 166.245 C 244.983 166.373,243.473 166.496,242.172 166.517 C 238.891 166.571,238.438 166.988,238.068 170.281 C 237.749 173.126,237.621 173.460,232.552 184.603 C 230.564 188.974,228.368 193.853,227.671 195.446 C 225.174 201.160,224.599 201.649,222.411 199.917 C 216.211 195.011,200.743 208.679,195.336 223.841 C 193.262 229.658,187.001 238.157,183.559 239.830 C 178.756 242.163,180.330 236.886,189.168 221.026 C 190.995 217.748,192.896 214.080,193.393 212.875 C 198.717 199.969,190.323 194.585,180.215 204.423 C 179.077 205.531,178.146 206.349,178.146 206.241 C 178.146 206.132,178.369 205.410,178.642 204.636 C 180.131 200.415,179.121 198.822,175.261 199.306 C 173.813 199.488,172.318 199.555,171.939 199.456 C 170.975 199.204,170.314 200.342,169.892 202.980 C 169.115 207.839,159.160 226.609,153.467 233.947 C 146.190 243.328,144.857 239.543,150.966 226.847 C 152.594 223.464,155.219 217.793,156.800 214.245 C 158.380 210.697,160.477 206.192,161.459 204.234 C 163.805 199.556,163.786 197.777,161.399 198.685 C 160.934 198.862,159.553 199.007,158.330 199.007 C 155.778 199.007,154.940 199.439,154.022 201.227 L 153.413 202.413 152.612 200.960 C 149.039 194.483,136.023 202.167,128.156 215.397 C 116.075 235.715,113.817 238.538,110.755 237.143 C 108.135 235.950,108.996 231.840,113.848 222.370 C 115.812 218.535,119.634 210.811,122.341 205.206 C 128.197 193.076,127.960 193.377,131.644 193.377 C 134.722 193.377,135.762 192.695,135.762 190.676 C 135.762 189.455,134.886 189.094,132.485 189.325 L 130.699 189.497 130.932 188.540 C 131.059 188.014,132.658 184.561,134.485 180.867 C 141.036 167.620,141.011 166.160,134.234 166.337 C 128.962 166.475,128.825 166.584,127.428 171.732 C 126.891 173.712,125.554 177.492,124.457 180.132 C 121.175 188.034,120.369 188.956,116.862 188.813 C 112.302 188.627,111.176 192.269,115.679 192.642 C 116.708 192.727,117.550 192.909,117.550 193.045 C 117.550 193.618,115.989 196.742,113.838 200.476 C 103.021 219.255,97.869 234.265,100.171 240.293 C 103.298 248.480,110.626 246.550,118.786 235.389 L 121.358 231.872 121.358 235.886 C 121.358 247.858,129.236 248.182,137.786 236.564 C 140.123 233.389,140.240 233.348,139.772 235.877 C 139.014 239.982,140.762 244.293,143.423 244.878 C 146.093 245.464,149.269 243.181,153.576 237.579 L 154.337 236.589 153.824 237.648 C 153.543 238.230,152.791 239.571,152.154 240.628 C 149.970 244.249,150.502 245.033,155.141 245.033 C 159.616 245.033,159.205 245.576,167.732 228.406 C 175.037 213.698,181.674 204.636,185.143 204.636 C 187.113 204.636,186.848 207.433,184.487 211.556 C 181.073 217.515,174.242 231.415,173.325 234.268 C 168.607 248.941,181.092 250.227,191.050 236.093 L 192.800 233.609 192.592 235.225 C 191.430 244.280,198.291 248.158,204.924 242.194 C 205.880 241.335,207.864 238.977,209.332 236.955 C 210.801 234.933,211.907 233.592,211.789 233.975 C 210.217 239.096,212.337 244.371,215.967 244.371 C 219.375 244.371,221.737 242.458,227.003 235.433 C 228.233 233.792,229.254 232.451,229.272 232.451 C 229.290 232.451,229.307 234.128,229.309 236.176 C 229.325 247.851,237.254 248.038,245.753 236.564 C 248.096 233.400,248.183 233.370,247.719 235.877 C 246.727 241.245,249.826 246.090,253.386 244.737 C 253.954 244.520,254.353 244.512,254.478 244.715 C 256.396 247.817,265.885 235.180,274.052 218.645 C 279.251 208.121,279.237 208.139,281.438 209.262 C 282.284 209.694,283.079 209.872,283.590 209.743 C 285.557 209.250,285.315 210.426,282.935 212.914 C 272.852 223.456,267.683 240.105,273.237 244.149 C 277.029 246.910,282.270 243.780,287.785 235.458 C 289.448 232.950,290.030 232.272,289.919 232.975 C 289.458 235.892,289.426 236.972,289.742 238.952 C 291.212 248.151,298.890 247.228,306.352 236.955 C 307.821 234.933,308.923 233.604,308.801 234.001 C 308.420 235.239,308.502 240.512,308.918 241.556 C 310.530 245.606,315.114 245.513,319.055 241.352 C 327.368 232.576,336.597 216.887,333.446 216.887 C 332.626 216.887,332.182 217.523,330.766 220.719 C 326.873 229.506,316.488 241.254,315.951 237.479 C 315.676 235.544,320.773 223.064,328.486 206.788 C 330.816 201.871,334.236 194.346,336.086 190.066 C 337.936 185.786,340.470 180.348,341.717 177.980 C 345.895 170.045,346.189 165.388,342.455 166.255 C 341.779 166.412,340.236 166.544,339.027 166.548 C 335.951 166.559,335.455 167.020,335.091 170.208 C 334.768 173.034,334.326 174.414,332.699 177.662 C 332.064 178.930,330.097 183.245,328.328 187.252 C 321.620 202.443,321.978 201.933,319.431 199.917 C 313.836 195.490,300.676 205.899,294.000 220.033 C 287.942 232.857,281.733 240.235,280.070 236.585 C 278.639 233.443,285.856 216.715,293.457 205.555 C 295.599 202.410,296.184 200.486,295.236 199.700 C 294.657 199.219,294.220 199.273,290.232 200.317 C 287.026 201.155,285.908 201.016,283.347 199.455 C 280.688 197.835,280.663 197.862,277.366 206.022 C 269.620 225.192,252.721 247.893,255.405 235.522 C 255.776 233.812,256.907 231.015,258.913 226.847 C 260.541 223.464,263.166 217.793,264.747 214.245 C 266.327 210.697,268.424 206.192,269.406 204.234 C 271.752 199.556,271.733 197.777,269.346 198.685 C 268.881 198.862,267.500 199.007,266.277 199.007 C 263.725 199.007,262.887 199.439,261.969 201.227 L 261.361 202.413 260.559 200.960 C 255.959 192.621,238.307 206.900,231.453 224.503 C 230.247 227.601,222.935 236.986,221.019 237.895 C 217.630 239.504,218.117 236.996,223.751 223.846 C 225.664 219.381,229.136 211.705,231.466 206.788 C 233.796 201.871,237.185 194.418,238.998 190.227 C 240.810 186.035,243.439 180.373,244.840 177.644 C 248.853 169.824,249.120 165.402,245.530 166.245 M148.671 201.984 C 152.008 203.770,145.365 220.966,136.645 233.113 C 129.901 242.505,125.342 239.529,129.672 228.562 C 135.895 212.803,145.023 200.032,148.671 201.984 M256.618 201.984 C 261.036 204.349,247.438 233.474,239.813 237.977 C 235.410 240.577,234.581 236.156,237.908 227.815 C 243.961 212.634,253.056 200.078,256.618 201.984 M218.692 204.381 C 221.749 208.746,207.734 236.473,201.007 239.366 C 194.343 242.233,195.185 233.309,202.816 220.179 C 211.152 205.836,216.195 200.817,218.692 204.381 M315.257 203.948 C 318.109 206.799,313.740 218.455,304.697 232.119 C 297.745 242.625,291.463 242.534,294.216 231.967 C 296.180 224.425,308.360 205.440,312.416 203.597 C 314.135 202.816,314.124 202.815,315.257 203.948 " stroke="none" fill="#f9fafa" fill-rule="evenodd"></path><path id="path1" d="M0.000 200.000 L 0.000 400.000 200.000 400.000 L 400.000 400.000 400.000 200.000 L 400.000 0.000 200.000 0.000 L 0.000 0.000 0.000 200.000 M112.526 152.606 C 120.448 155.821,121.713 171.700,114.791 181.031 C 111.391 185.614,104.636 187.348,104.636 183.637 C 104.636 182.424,105.042 182.119,106.657 182.119 C 111.062 182.119,114.548 171.256,112.721 163.224 C 110.750 154.560,102.417 154.282,98.499 162.748 C 95.142 170.001,95.447 174.504,100.505 192.384 C 104.960 208.134,104.591 217.658,99.118 228.194 C 89.325 247.040,65.294 250.973,57.514 235.001 C 49.785 219.134,58.937 195.021,74.930 189.118 C 84.921 185.430,91.295 196.360,86.872 209.599 C 84.909 215.479,79.080 221.456,78.016 218.682 C 77.686 217.822,77.741 217.715,79.627 215.602 C 83.501 211.260,84.383 201.209,81.251 197.103 C 74.983 188.886,64.708 197.473,61.737 213.411 C 57.632 235.425,77.890 249.414,89.374 232.496 C 95.334 223.715,96.103 215.290,92.221 201.325 C 87.203 183.276,86.760 177.360,89.762 168.497 C 93.579 157.225,104.729 149.441,112.526 152.606 M247.885 167.799 C 248.285 169.928,247.503 172.454,244.840 177.644 C 243.439 180.373,240.810 186.035,238.998 190.227 C 237.185 194.418,233.796 201.871,231.466 206.788 C 229.136 211.705,225.664 219.381,223.751 223.846 C 218.117 236.996,217.630 239.504,221.019 237.895 C 222.935 236.986,230.247 227.601,231.453 224.503 C 238.307 206.900,255.959 192.621,260.559 200.960 L 261.361 202.413 261.969 201.227 C 262.887 199.439,263.725 199.007,266.277 199.007 C 267.500 199.007,268.881 198.862,269.346 198.685 C 271.733 197.777,271.752 199.556,269.406 204.234 C 268.424 206.192,266.327 210.697,264.747 214.245 C 263.166 217.793,260.541 223.464,258.913 226.847 C 256.907 231.015,255.776 233.812,255.405 235.522 C 252.721 247.893,269.620 225.192,277.366 206.022 C 280.663 197.862,280.688 197.835,283.347 199.455 C 285.908 201.016,287.026 201.155,290.232 200.317 C 294.220 199.273,294.657 199.219,295.236 199.700 C 296.184 200.486,295.599 202.410,293.457 205.555 C 285.856 216.715,278.639 233.443,280.070 236.585 C 281.733 240.235,287.942 232.857,294.000 220.033 C 300.676 205.899,313.836 195.490,319.431 199.917 C 321.978 201.933,321.620 202.443,328.328 187.252 C 330.097 183.245,332.064 178.930,332.699 177.662 C 334.326 174.414,334.768 173.034,335.091 170.208 C 335.455 167.020,335.951 166.559,339.027 166.548 C 340.236 166.544,341.779 166.412,342.455 166.255 C 346.189 165.388,345.895 170.045,341.717 177.980 C 340.470 180.348,337.936 185.786,336.086 190.066 C 334.236 194.346,330.816 201.871,328.486 206.788 C 320.773 223.064,315.676 235.544,315.951 237.479 C 316.488 241.254,326.873 229.506,330.766 220.719 C 332.182 217.523,332.626 216.887,333.446 216.887 C 336.597 216.887,327.368 232.576,319.055 241.352 C 315.114 245.513,310.530 245.606,308.918 241.556 C 308.502 240.512,308.420 235.239,308.801 234.001 C 308.923 233.604,307.821 234.933,306.352 236.955 C 298.890 247.228,291.212 248.151,289.742 238.952 C 289.426 236.972,289.458 235.892,289.919 232.975 C 290.030 232.272,289.448 232.950,287.785 235.458 C 282.270 243.780,277.029 246.910,273.237 244.149 C 267.683 240.105,272.852 223.456,282.935 212.914 C 285.315 210.426,285.557 209.250,283.590 209.743 C 283.079 209.872,282.284 209.694,281.438 209.262 C 279.237 208.139,279.251 208.121,274.052 218.645 C 265.885 235.180,256.396 247.817,254.478 244.715 C 254.353 244.512,253.954 244.520,253.386 244.737 C 249.826 246.090,246.727 241.245,247.719 235.877 C 248.183 233.370,248.096 233.400,245.753 236.564 C 237.254 248.038,229.325 247.851,229.309 236.176 C 229.307 234.128,229.290 232.451,229.272 232.451 C 229.254 232.451,228.233 233.792,227.003 235.433 C 221.737 242.458,219.375 244.371,215.967 244.371 C 212.337 244.371,210.217 239.096,211.789 233.975 C 211.907 233.592,210.801 234.933,209.332 236.955 C 207.864 238.977,205.880 241.335,204.924 242.194 C 198.291 248.158,191.430 244.280,192.592 235.225 L 192.800 233.609 191.050 236.093 C 181.092 250.227,168.607 248.941,173.325 234.268 C 174.242 231.415,181.073 217.515,184.487 211.556 C 186.848 207.433,187.113 204.636,185.143 204.636 C 181.674 204.636,175.037 213.698,167.732 228.406 C 159.205 245.576,159.616 245.033,155.141 245.033 C 150.502 245.033,149.970 244.249,152.154 240.628 C 152.791 239.571,153.543 238.230,153.824 237.648 L 154.337 236.589 153.576 237.579 C 149.269 243.181,146.093 245.464,143.423 244.878 C 140.762 244.293,139.014 239.982,139.772 235.877 C 140.240 233.348,140.123 233.389,137.786 236.564 C 129.236 248.182,121.358 247.858,121.358 235.886 L 121.358 231.872 118.786 235.389 C 110.626 246.550,103.298 248.480,100.171 240.293 C 97.869 234.265,103.021 219.255,113.838 200.476 C 115.989 196.742,117.550 193.618,117.550 193.045 C 117.550 192.909,116.708 192.727,115.679 192.642 C 111.176 192.269,112.302 188.627,116.862 188.813 C 120.369 188.956,121.175 188.034,124.457 180.132 C 125.554 177.492,126.891 173.712,127.428 171.732 C 128.825 166.584,128.962 166.475,134.234 166.337 C 141.011 166.160,141.036 167.620,134.485 180.867 C 132.658 184.561,131.059 188.014,130.932 188.540 L 130.699 189.497 132.485 189.325 C 134.886 189.094,135.762 189.455,135.762 190.676 C 135.762 192.695,134.722 193.377,131.644 193.377 C 127.960 193.377,128.197 193.076,122.341 205.206 C 119.634 210.811,115.812 218.535,113.848 222.370 C 108.996 231.840,108.135 235.950,110.755 237.143 C 113.817 238.538,116.075 235.715,128.156 215.397 C 136.023 202.167,149.039 194.483,152.612 200.960 L 153.413 202.413 154.022 201.227 C 154.940 199.439,155.778 199.007,158.330 199.007 C 159.553 199.007,160.934 198.862,161.399 198.685 C 163.786 197.777,163.805 199.556,161.459 204.234 C 160.477 206.192,158.380 210.697,156.800 214.245 C 155.219 217.793,152.594 223.464,150.966 226.847 C 144.857 239.543,146.190 243.328,153.467 233.947 C 159.160 226.609,169.115 207.839,169.892 202.980 C 170.314 200.342,170.975 199.204,171.939 199.456 C 172.318 199.555,173.813 199.488,175.261 199.306 C 179.121 198.822,180.131 200.415,178.642 204.636 C 178.369 205.410,178.146 206.132,178.146 206.241 C 178.146 206.349,179.077 205.531,180.215 204.423 C 190.323 194.585,198.717 199.969,193.393 212.875 C 192.896 214.080,190.995 217.748,189.168 221.026 C 180.330 236.886,178.756 242.163,183.559 239.830 C 187.001 238.157,193.262 229.658,195.336 223.841 C 200.743 208.679,216.211 195.011,222.411 199.917 C 224.599 201.649,225.174 201.160,227.671 195.446 C 228.368 193.853,230.564 188.974,232.552 184.603 C 237.621 173.460,237.749 173.126,238.068 170.281 C 238.438 166.988,238.891 166.571,242.172 166.517 C 243.473 166.496,244.983 166.373,245.530 166.245 C 246.929 165.916,247.617 166.370,247.885 167.799 M146.150 202.291 C 139.768 205.189,125.807 232.574,128.277 237.350 C 130.444 241.541,135.970 235.877,143.232 222.020 C 150.721 207.731,151.913 199.674,146.150 202.291 M254.097 202.291 C 248.888 204.656,235.791 228.286,235.766 235.364 C 235.742 241.941,241.443 238.675,247.498 228.642 C 257.573 211.949,260.748 199.270,254.097 202.291 M215.726 203.491 C 211.766 204.832,199.256 224.056,197.196 231.967 C 194.444 242.534,200.725 242.625,207.677 232.119 C 218.685 215.484,222.724 201.121,215.726 203.491 M312.416 203.597 C 309.228 205.045,300.560 217.564,295.986 227.325 C 292.158 235.493,293.169 241.456,298.027 239.366 C 303.455 237.031,316.225 214.128,316.225 206.728 C 316.225 203.753,314.747 202.538,312.416 203.597 " stroke="none" fill="#0b6c74" fill-rule="evenodd"></path></g></svg>